<mxfile host="app.diagrams.net" agent="Mozilla/5.0 (Windows NT 10.0; Win64; x64) AppleWebKit/537.36 (KHTML, like Gecko) Chrome/141.0.0.0 Safari/537.36" version="28.2.6">
  <diagram name="Modelo-Logico" id="EC3GB4qLdoABbJum4pJT">
    <mxGraphModel dx="1042" dy="170" grid="0" gridSize="12" guides="1" tooltips="1" connect="1" arrows="1" fold="1" page="0" pageScale="1" pageWidth="827" pageHeight="1169" math="0" shadow="0">
      <root>
        <mxCell id="0" />
        <mxCell id="1" parent="0" />
        <mxCell id="-qaN85qFnqq6nz6RLx13-1" value="TAGS" style="shape=table;startSize=30;container=1;collapsible=1;childLayout=tableLayout;fixedRows=1;rowLines=0;fontStyle=1;align=center;resizeLast=1;html=1;" parent="1" vertex="1">
          <mxGeometry x="96" y="408" width="192" height="120" as="geometry" />
        </mxCell>
        <mxCell id="-qaN85qFnqq6nz6RLx13-2" value="" style="shape=tableRow;horizontal=0;startSize=0;swimlaneHead=0;swimlaneBody=0;fillColor=none;collapsible=0;dropTarget=0;points=[[0,0.5],[1,0.5]];portConstraint=eastwest;top=0;left=0;right=0;bottom=1;" parent="-qaN85qFnqq6nz6RLx13-1" vertex="1">
          <mxGeometry y="30" width="192" height="30" as="geometry" />
        </mxCell>
        <mxCell id="-qaN85qFnqq6nz6RLx13-3" value="PK" style="shape=partialRectangle;connectable=0;fillColor=none;top=0;left=0;bottom=0;right=0;fontStyle=1;overflow=hidden;whiteSpace=wrap;html=1;" parent="-qaN85qFnqq6nz6RLx13-2" vertex="1">
          <mxGeometry width="30" height="30" as="geometry">
            <mxRectangle width="30" height="30" as="alternateBounds" />
          </mxGeometry>
        </mxCell>
        <mxCell id="-qaN85qFnqq6nz6RLx13-4" value="Id_tag" style="shape=partialRectangle;connectable=0;fillColor=none;top=0;left=0;bottom=0;right=0;align=left;spacingLeft=6;fontStyle=5;overflow=hidden;whiteSpace=wrap;html=1;" parent="-qaN85qFnqq6nz6RLx13-2" vertex="1">
          <mxGeometry x="30" width="162" height="30" as="geometry">
            <mxRectangle width="162" height="30" as="alternateBounds" />
          </mxGeometry>
        </mxCell>
        <mxCell id="-qaN85qFnqq6nz6RLx13-5" value="" style="shape=tableRow;horizontal=0;startSize=0;swimlaneHead=0;swimlaneBody=0;fillColor=none;collapsible=0;dropTarget=0;points=[[0,0.5],[1,0.5]];portConstraint=eastwest;top=0;left=0;right=0;bottom=0;" parent="-qaN85qFnqq6nz6RLx13-1" vertex="1">
          <mxGeometry y="60" width="192" height="30" as="geometry" />
        </mxCell>
        <mxCell id="-qaN85qFnqq6nz6RLx13-6" value="FK" style="shape=partialRectangle;connectable=0;fillColor=none;top=0;left=0;bottom=0;right=0;editable=1;overflow=hidden;whiteSpace=wrap;html=1;" parent="-qaN85qFnqq6nz6RLx13-5" vertex="1">
          <mxGeometry width="30" height="30" as="geometry">
            <mxRectangle width="30" height="30" as="alternateBounds" />
          </mxGeometry>
        </mxCell>
        <mxCell id="-qaN85qFnqq6nz6RLx13-7" value="Id_Usuario" style="shape=partialRectangle;connectable=0;fillColor=none;top=0;left=0;bottom=0;right=0;align=left;spacingLeft=6;overflow=hidden;whiteSpace=wrap;html=1;" parent="-qaN85qFnqq6nz6RLx13-5" vertex="1">
          <mxGeometry x="30" width="162" height="30" as="geometry">
            <mxRectangle width="162" height="30" as="alternateBounds" />
          </mxGeometry>
        </mxCell>
        <mxCell id="-qaN85qFnqq6nz6RLx13-8" value="" style="shape=tableRow;horizontal=0;startSize=0;swimlaneHead=0;swimlaneBody=0;fillColor=none;collapsible=0;dropTarget=0;points=[[0,0.5],[1,0.5]];portConstraint=eastwest;top=0;left=0;right=0;bottom=0;" parent="-qaN85qFnqq6nz6RLx13-1" vertex="1">
          <mxGeometry y="90" width="192" height="30" as="geometry" />
        </mxCell>
        <mxCell id="-qaN85qFnqq6nz6RLx13-9" value="" style="shape=partialRectangle;connectable=0;fillColor=none;top=0;left=0;bottom=0;right=0;editable=1;overflow=hidden;whiteSpace=wrap;html=1;" parent="-qaN85qFnqq6nz6RLx13-8" vertex="1">
          <mxGeometry width="30" height="30" as="geometry">
            <mxRectangle width="30" height="30" as="alternateBounds" />
          </mxGeometry>
        </mxCell>
        <mxCell id="-qaN85qFnqq6nz6RLx13-10" value="Nome" style="shape=partialRectangle;connectable=0;fillColor=none;top=0;left=0;bottom=0;right=0;align=left;spacingLeft=6;overflow=hidden;whiteSpace=wrap;html=1;" parent="-qaN85qFnqq6nz6RLx13-8" vertex="1">
          <mxGeometry x="30" width="162" height="30" as="geometry">
            <mxRectangle width="162" height="30" as="alternateBounds" />
          </mxGeometry>
        </mxCell>
        <mxCell id="-qaN85qFnqq6nz6RLx13-14" value="USUARIO" style="shape=table;startSize=30;container=1;collapsible=1;childLayout=tableLayout;fixedRows=1;rowLines=0;fontStyle=1;align=center;resizeLast=1;html=1;" parent="1" vertex="1">
          <mxGeometry x="96" y="600" width="192" height="180" as="geometry" />
        </mxCell>
        <mxCell id="-qaN85qFnqq6nz6RLx13-15" value="" style="shape=tableRow;horizontal=0;startSize=0;swimlaneHead=0;swimlaneBody=0;fillColor=none;collapsible=0;dropTarget=0;points=[[0,0.5],[1,0.5]];portConstraint=eastwest;top=0;left=0;right=0;bottom=1;" parent="-qaN85qFnqq6nz6RLx13-14" vertex="1">
          <mxGeometry y="30" width="192" height="30" as="geometry" />
        </mxCell>
        <mxCell id="-qaN85qFnqq6nz6RLx13-16" value="PK" style="shape=partialRectangle;connectable=0;fillColor=none;top=0;left=0;bottom=0;right=0;fontStyle=1;overflow=hidden;whiteSpace=wrap;html=1;" parent="-qaN85qFnqq6nz6RLx13-15" vertex="1">
          <mxGeometry width="30" height="30" as="geometry">
            <mxRectangle width="30" height="30" as="alternateBounds" />
          </mxGeometry>
        </mxCell>
        <mxCell id="-qaN85qFnqq6nz6RLx13-17" value="Id_Usuario" style="shape=partialRectangle;connectable=0;fillColor=none;top=0;left=0;bottom=0;right=0;align=left;spacingLeft=6;fontStyle=5;overflow=hidden;whiteSpace=wrap;html=1;" parent="-qaN85qFnqq6nz6RLx13-15" vertex="1">
          <mxGeometry x="30" width="162" height="30" as="geometry">
            <mxRectangle width="162" height="30" as="alternateBounds" />
          </mxGeometry>
        </mxCell>
        <mxCell id="-qaN85qFnqq6nz6RLx13-18" value="" style="shape=tableRow;horizontal=0;startSize=0;swimlaneHead=0;swimlaneBody=0;fillColor=none;collapsible=0;dropTarget=0;points=[[0,0.5],[1,0.5]];portConstraint=eastwest;top=0;left=0;right=0;bottom=0;" parent="-qaN85qFnqq6nz6RLx13-14" vertex="1">
          <mxGeometry y="60" width="192" height="30" as="geometry" />
        </mxCell>
        <mxCell id="-qaN85qFnqq6nz6RLx13-19" value="" style="shape=partialRectangle;connectable=0;fillColor=none;top=0;left=0;bottom=0;right=0;editable=1;overflow=hidden;whiteSpace=wrap;html=1;" parent="-qaN85qFnqq6nz6RLx13-18" vertex="1">
          <mxGeometry width="30" height="30" as="geometry">
            <mxRectangle width="30" height="30" as="alternateBounds" />
          </mxGeometry>
        </mxCell>
        <mxCell id="-qaN85qFnqq6nz6RLx13-20" value="Nome" style="shape=partialRectangle;connectable=0;fillColor=none;top=0;left=0;bottom=0;right=0;align=left;spacingLeft=6;overflow=hidden;whiteSpace=wrap;html=1;" parent="-qaN85qFnqq6nz6RLx13-18" vertex="1">
          <mxGeometry x="30" width="162" height="30" as="geometry">
            <mxRectangle width="162" height="30" as="alternateBounds" />
          </mxGeometry>
        </mxCell>
        <mxCell id="-qaN85qFnqq6nz6RLx13-21" value="" style="shape=tableRow;horizontal=0;startSize=0;swimlaneHead=0;swimlaneBody=0;fillColor=none;collapsible=0;dropTarget=0;points=[[0,0.5],[1,0.5]];portConstraint=eastwest;top=0;left=0;right=0;bottom=0;" parent="-qaN85qFnqq6nz6RLx13-14" vertex="1">
          <mxGeometry y="90" width="192" height="30" as="geometry" />
        </mxCell>
        <mxCell id="-qaN85qFnqq6nz6RLx13-22" value="" style="shape=partialRectangle;connectable=0;fillColor=none;top=0;left=0;bottom=0;right=0;editable=1;overflow=hidden;whiteSpace=wrap;html=1;" parent="-qaN85qFnqq6nz6RLx13-21" vertex="1">
          <mxGeometry width="30" height="30" as="geometry">
            <mxRectangle width="30" height="30" as="alternateBounds" />
          </mxGeometry>
        </mxCell>
        <mxCell id="-qaN85qFnqq6nz6RLx13-23" value="Email" style="shape=partialRectangle;connectable=0;fillColor=none;top=0;left=0;bottom=0;right=0;align=left;spacingLeft=6;overflow=hidden;whiteSpace=wrap;html=1;" parent="-qaN85qFnqq6nz6RLx13-21" vertex="1">
          <mxGeometry x="30" width="162" height="30" as="geometry">
            <mxRectangle width="162" height="30" as="alternateBounds" />
          </mxGeometry>
        </mxCell>
        <mxCell id="-qaN85qFnqq6nz6RLx13-24" value="" style="shape=tableRow;horizontal=0;startSize=0;swimlaneHead=0;swimlaneBody=0;fillColor=none;collapsible=0;dropTarget=0;points=[[0,0.5],[1,0.5]];portConstraint=eastwest;top=0;left=0;right=0;bottom=0;" parent="-qaN85qFnqq6nz6RLx13-14" vertex="1">
          <mxGeometry y="120" width="192" height="30" as="geometry" />
        </mxCell>
        <mxCell id="-qaN85qFnqq6nz6RLx13-25" value="" style="shape=partialRectangle;connectable=0;fillColor=none;top=0;left=0;bottom=0;right=0;editable=1;overflow=hidden;whiteSpace=wrap;html=1;" parent="-qaN85qFnqq6nz6RLx13-24" vertex="1">
          <mxGeometry width="30" height="30" as="geometry">
            <mxRectangle width="30" height="30" as="alternateBounds" />
          </mxGeometry>
        </mxCell>
        <mxCell id="-qaN85qFnqq6nz6RLx13-26" value="Senha" style="shape=partialRectangle;connectable=0;fillColor=none;top=0;left=0;bottom=0;right=0;align=left;spacingLeft=6;overflow=hidden;whiteSpace=wrap;html=1;" parent="-qaN85qFnqq6nz6RLx13-24" vertex="1">
          <mxGeometry x="30" width="162" height="30" as="geometry">
            <mxRectangle width="162" height="30" as="alternateBounds" />
          </mxGeometry>
        </mxCell>
        <mxCell id="5VfrAVby3s4Jfk2GpM1A-8" value="" style="shape=tableRow;horizontal=0;startSize=0;swimlaneHead=0;swimlaneBody=0;fillColor=none;collapsible=0;dropTarget=0;points=[[0,0.5],[1,0.5]];portConstraint=eastwest;top=0;left=0;right=0;bottom=0;" parent="-qaN85qFnqq6nz6RLx13-14" vertex="1">
          <mxGeometry y="150" width="192" height="30" as="geometry" />
        </mxCell>
        <mxCell id="5VfrAVby3s4Jfk2GpM1A-9" value="" style="shape=partialRectangle;connectable=0;fillColor=none;top=0;left=0;bottom=0;right=0;editable=1;overflow=hidden;whiteSpace=wrap;html=1;" parent="5VfrAVby3s4Jfk2GpM1A-8" vertex="1">
          <mxGeometry width="30" height="30" as="geometry">
            <mxRectangle width="30" height="30" as="alternateBounds" />
          </mxGeometry>
        </mxCell>
        <mxCell id="5VfrAVby3s4Jfk2GpM1A-10" value="data_criação" style="shape=partialRectangle;connectable=0;fillColor=none;top=0;left=0;bottom=0;right=0;align=left;spacingLeft=6;overflow=hidden;whiteSpace=wrap;html=1;" parent="5VfrAVby3s4Jfk2GpM1A-8" vertex="1">
          <mxGeometry x="30" width="162" height="30" as="geometry">
            <mxRectangle width="162" height="30" as="alternateBounds" />
          </mxGeometry>
        </mxCell>
        <mxCell id="q4Ib3q-R9kTxu34o33U6-1" value="NOTA" style="shape=table;startSize=30;container=1;collapsible=1;childLayout=tableLayout;fixedRows=1;rowLines=0;fontStyle=1;align=center;resizeLast=1;html=1;" parent="1" vertex="1">
          <mxGeometry x="432" y="684" width="192" height="240" as="geometry" />
        </mxCell>
        <mxCell id="q4Ib3q-R9kTxu34o33U6-2" value="" style="shape=tableRow;horizontal=0;startSize=0;swimlaneHead=0;swimlaneBody=0;fillColor=none;collapsible=0;dropTarget=0;points=[[0,0.5],[1,0.5]];portConstraint=eastwest;top=0;left=0;right=0;bottom=1;" parent="q4Ib3q-R9kTxu34o33U6-1" vertex="1">
          <mxGeometry y="30" width="192" height="30" as="geometry" />
        </mxCell>
        <mxCell id="q4Ib3q-R9kTxu34o33U6-3" value="PK" style="shape=partialRectangle;connectable=0;fillColor=none;top=0;left=0;bottom=0;right=0;fontStyle=1;overflow=hidden;whiteSpace=wrap;html=1;" parent="q4Ib3q-R9kTxu34o33U6-2" vertex="1">
          <mxGeometry width="30" height="30" as="geometry">
            <mxRectangle width="30" height="30" as="alternateBounds" />
          </mxGeometry>
        </mxCell>
        <mxCell id="q4Ib3q-R9kTxu34o33U6-4" value="Id_Nota" style="shape=partialRectangle;connectable=0;fillColor=none;top=0;left=0;bottom=0;right=0;align=left;spacingLeft=6;fontStyle=5;overflow=hidden;whiteSpace=wrap;html=1;" parent="q4Ib3q-R9kTxu34o33U6-2" vertex="1">
          <mxGeometry x="30" width="162" height="30" as="geometry">
            <mxRectangle width="162" height="30" as="alternateBounds" />
          </mxGeometry>
        </mxCell>
        <mxCell id="q4Ib3q-R9kTxu34o33U6-5" value="" style="shape=tableRow;horizontal=0;startSize=0;swimlaneHead=0;swimlaneBody=0;fillColor=none;collapsible=0;dropTarget=0;points=[[0,0.5],[1,0.5]];portConstraint=eastwest;top=0;left=0;right=0;bottom=0;" parent="q4Ib3q-R9kTxu34o33U6-1" vertex="1">
          <mxGeometry y="60" width="192" height="30" as="geometry" />
        </mxCell>
        <mxCell id="q4Ib3q-R9kTxu34o33U6-6" value="FK" style="shape=partialRectangle;connectable=0;fillColor=none;top=0;left=0;bottom=0;right=0;editable=1;overflow=hidden;whiteSpace=wrap;html=1;" parent="q4Ib3q-R9kTxu34o33U6-5" vertex="1">
          <mxGeometry width="30" height="30" as="geometry">
            <mxRectangle width="30" height="30" as="alternateBounds" />
          </mxGeometry>
        </mxCell>
        <mxCell id="q4Ib3q-R9kTxu34o33U6-7" value="Id_usuario" style="shape=partialRectangle;connectable=0;fillColor=none;top=0;left=0;bottom=0;right=0;align=left;spacingLeft=6;overflow=hidden;whiteSpace=wrap;html=1;" parent="q4Ib3q-R9kTxu34o33U6-5" vertex="1">
          <mxGeometry x="30" width="162" height="30" as="geometry">
            <mxRectangle width="162" height="30" as="alternateBounds" />
          </mxGeometry>
        </mxCell>
        <mxCell id="Q-WE-dggPua1pSskGDW9-32" value="" style="shape=tableRow;horizontal=0;startSize=0;swimlaneHead=0;swimlaneBody=0;fillColor=none;collapsible=0;dropTarget=0;points=[[0,0.5],[1,0.5]];portConstraint=eastwest;top=0;left=0;right=0;bottom=0;" parent="q4Ib3q-R9kTxu34o33U6-1" vertex="1">
          <mxGeometry y="90" width="192" height="30" as="geometry" />
        </mxCell>
        <mxCell id="Q-WE-dggPua1pSskGDW9-33" value="" style="shape=partialRectangle;connectable=0;fillColor=none;top=0;left=0;bottom=0;right=0;editable=1;overflow=hidden;whiteSpace=wrap;html=1;" parent="Q-WE-dggPua1pSskGDW9-32" vertex="1">
          <mxGeometry width="30" height="30" as="geometry">
            <mxRectangle width="30" height="30" as="alternateBounds" />
          </mxGeometry>
        </mxCell>
        <mxCell id="Q-WE-dggPua1pSskGDW9-34" value="Imagem_URL" style="shape=partialRectangle;connectable=0;fillColor=none;top=0;left=0;bottom=0;right=0;align=left;spacingLeft=6;overflow=hidden;whiteSpace=wrap;html=1;" parent="Q-WE-dggPua1pSskGDW9-32" vertex="1">
          <mxGeometry x="30" width="162" height="30" as="geometry">
            <mxRectangle width="162" height="30" as="alternateBounds" />
          </mxGeometry>
        </mxCell>
        <mxCell id="Q-WE-dggPua1pSskGDW9-35" value="" style="shape=tableRow;horizontal=0;startSize=0;swimlaneHead=0;swimlaneBody=0;fillColor=none;collapsible=0;dropTarget=0;points=[[0,0.5],[1,0.5]];portConstraint=eastwest;top=0;left=0;right=0;bottom=0;" parent="q4Ib3q-R9kTxu34o33U6-1" vertex="1">
          <mxGeometry y="120" width="192" height="30" as="geometry" />
        </mxCell>
        <mxCell id="Q-WE-dggPua1pSskGDW9-36" value="" style="shape=partialRectangle;connectable=0;fillColor=none;top=0;left=0;bottom=0;right=0;editable=1;overflow=hidden;whiteSpace=wrap;html=1;" parent="Q-WE-dggPua1pSskGDW9-35" vertex="1">
          <mxGeometry width="30" height="30" as="geometry">
            <mxRectangle width="30" height="30" as="alternateBounds" />
          </mxGeometry>
        </mxCell>
        <mxCell id="Q-WE-dggPua1pSskGDW9-37" value="Titulo" style="shape=partialRectangle;connectable=0;fillColor=none;top=0;left=0;bottom=0;right=0;align=left;spacingLeft=6;overflow=hidden;whiteSpace=wrap;html=1;" parent="Q-WE-dggPua1pSskGDW9-35" vertex="1">
          <mxGeometry x="30" width="162" height="30" as="geometry">
            <mxRectangle width="162" height="30" as="alternateBounds" />
          </mxGeometry>
        </mxCell>
        <mxCell id="Q-WE-dggPua1pSskGDW9-38" value="" style="shape=tableRow;horizontal=0;startSize=0;swimlaneHead=0;swimlaneBody=0;fillColor=none;collapsible=0;dropTarget=0;points=[[0,0.5],[1,0.5]];portConstraint=eastwest;top=0;left=0;right=0;bottom=0;" parent="q4Ib3q-R9kTxu34o33U6-1" vertex="1">
          <mxGeometry y="150" width="192" height="30" as="geometry" />
        </mxCell>
        <mxCell id="Q-WE-dggPua1pSskGDW9-39" value="" style="shape=partialRectangle;connectable=0;fillColor=none;top=0;left=0;bottom=0;right=0;editable=1;overflow=hidden;whiteSpace=wrap;html=1;" parent="Q-WE-dggPua1pSskGDW9-38" vertex="1">
          <mxGeometry width="30" height="30" as="geometry">
            <mxRectangle width="30" height="30" as="alternateBounds" />
          </mxGeometry>
        </mxCell>
        <mxCell id="Q-WE-dggPua1pSskGDW9-40" value="Descrição" style="shape=partialRectangle;connectable=0;fillColor=none;top=0;left=0;bottom=0;right=0;align=left;spacingLeft=6;overflow=hidden;whiteSpace=wrap;html=1;" parent="Q-WE-dggPua1pSskGDW9-38" vertex="1">
          <mxGeometry x="30" width="162" height="30" as="geometry">
            <mxRectangle width="162" height="30" as="alternateBounds" />
          </mxGeometry>
        </mxCell>
        <mxCell id="Q-WE-dggPua1pSskGDW9-41" value="" style="shape=tableRow;horizontal=0;startSize=0;swimlaneHead=0;swimlaneBody=0;fillColor=none;collapsible=0;dropTarget=0;points=[[0,0.5],[1,0.5]];portConstraint=eastwest;top=0;left=0;right=0;bottom=0;" parent="q4Ib3q-R9kTxu34o33U6-1" vertex="1">
          <mxGeometry y="180" width="192" height="30" as="geometry" />
        </mxCell>
        <mxCell id="Q-WE-dggPua1pSskGDW9-42" value="" style="shape=partialRectangle;connectable=0;fillColor=none;top=0;left=0;bottom=0;right=0;editable=1;overflow=hidden;whiteSpace=wrap;html=1;" parent="Q-WE-dggPua1pSskGDW9-41" vertex="1">
          <mxGeometry width="30" height="30" as="geometry">
            <mxRectangle width="30" height="30" as="alternateBounds" />
          </mxGeometry>
        </mxCell>
        <mxCell id="Q-WE-dggPua1pSskGDW9-43" value="Data_criação" style="shape=partialRectangle;connectable=0;fillColor=none;top=0;left=0;bottom=0;right=0;align=left;spacingLeft=6;overflow=hidden;whiteSpace=wrap;html=1;" parent="Q-WE-dggPua1pSskGDW9-41" vertex="1">
          <mxGeometry x="30" width="162" height="30" as="geometry">
            <mxRectangle width="162" height="30" as="alternateBounds" />
          </mxGeometry>
        </mxCell>
        <mxCell id="Q-WE-dggPua1pSskGDW9-44" value="" style="shape=tableRow;horizontal=0;startSize=0;swimlaneHead=0;swimlaneBody=0;fillColor=none;collapsible=0;dropTarget=0;points=[[0,0.5],[1,0.5]];portConstraint=eastwest;top=0;left=0;right=0;bottom=0;" parent="q4Ib3q-R9kTxu34o33U6-1" vertex="1">
          <mxGeometry y="210" width="192" height="30" as="geometry" />
        </mxCell>
        <mxCell id="Q-WE-dggPua1pSskGDW9-45" value="" style="shape=partialRectangle;connectable=0;fillColor=none;top=0;left=0;bottom=0;right=0;editable=1;overflow=hidden;whiteSpace=wrap;html=1;" parent="Q-WE-dggPua1pSskGDW9-44" vertex="1">
          <mxGeometry width="30" height="30" as="geometry">
            <mxRectangle width="30" height="30" as="alternateBounds" />
          </mxGeometry>
        </mxCell>
        <mxCell id="Q-WE-dggPua1pSskGDW9-46" value="Data_edição" style="shape=partialRectangle;connectable=0;fillColor=none;top=0;left=0;bottom=0;right=0;align=left;spacingLeft=6;overflow=hidden;whiteSpace=wrap;html=1;" parent="Q-WE-dggPua1pSskGDW9-44" vertex="1">
          <mxGeometry x="30" width="162" height="30" as="geometry">
            <mxRectangle width="162" height="30" as="alternateBounds" />
          </mxGeometry>
        </mxCell>
        <mxCell id="iiRLMLcNrxst5Krt7Htv-1" value="TAG-Anotação" style="shape=table;startSize=30;container=1;collapsible=1;childLayout=tableLayout;fixedRows=1;rowLines=0;fontStyle=1;align=center;resizeLast=1;html=1;" parent="1" vertex="1">
          <mxGeometry x="432" y="492" width="192" height="90" as="geometry" />
        </mxCell>
        <mxCell id="iiRLMLcNrxst5Krt7Htv-5" value="" style="shape=tableRow;horizontal=0;startSize=0;swimlaneHead=0;swimlaneBody=0;fillColor=none;collapsible=0;dropTarget=0;points=[[0,0.5],[1,0.5]];portConstraint=eastwest;top=0;left=0;right=0;bottom=0;" parent="iiRLMLcNrxst5Krt7Htv-1" vertex="1">
          <mxGeometry y="30" width="192" height="30" as="geometry" />
        </mxCell>
        <mxCell id="iiRLMLcNrxst5Krt7Htv-6" value="FK" style="shape=partialRectangle;connectable=0;fillColor=none;top=0;left=0;bottom=0;right=0;editable=1;overflow=hidden;whiteSpace=wrap;html=1;" parent="iiRLMLcNrxst5Krt7Htv-5" vertex="1">
          <mxGeometry width="30" height="30" as="geometry">
            <mxRectangle width="30" height="30" as="alternateBounds" />
          </mxGeometry>
        </mxCell>
        <mxCell id="iiRLMLcNrxst5Krt7Htv-7" value="Id_tag" style="shape=partialRectangle;connectable=0;fillColor=none;top=0;left=0;bottom=0;right=0;align=left;spacingLeft=6;overflow=hidden;whiteSpace=wrap;html=1;" parent="iiRLMLcNrxst5Krt7Htv-5" vertex="1">
          <mxGeometry x="30" width="162" height="30" as="geometry">
            <mxRectangle width="162" height="30" as="alternateBounds" />
          </mxGeometry>
        </mxCell>
        <mxCell id="iiRLMLcNrxst5Krt7Htv-8" value="" style="shape=tableRow;horizontal=0;startSize=0;swimlaneHead=0;swimlaneBody=0;fillColor=none;collapsible=0;dropTarget=0;points=[[0,0.5],[1,0.5]];portConstraint=eastwest;top=0;left=0;right=0;bottom=0;" parent="iiRLMLcNrxst5Krt7Htv-1" vertex="1">
          <mxGeometry y="60" width="192" height="30" as="geometry" />
        </mxCell>
        <mxCell id="iiRLMLcNrxst5Krt7Htv-9" value="FK" style="shape=partialRectangle;connectable=0;fillColor=none;top=0;left=0;bottom=0;right=0;editable=1;overflow=hidden;whiteSpace=wrap;html=1;" parent="iiRLMLcNrxst5Krt7Htv-8" vertex="1">
          <mxGeometry width="30" height="30" as="geometry">
            <mxRectangle width="30" height="30" as="alternateBounds" />
          </mxGeometry>
        </mxCell>
        <mxCell id="iiRLMLcNrxst5Krt7Htv-10" value="Id_nota" style="shape=partialRectangle;connectable=0;fillColor=none;top=0;left=0;bottom=0;right=0;align=left;spacingLeft=6;overflow=hidden;whiteSpace=wrap;html=1;" parent="iiRLMLcNrxst5Krt7Htv-8" vertex="1">
          <mxGeometry x="30" width="162" height="30" as="geometry">
            <mxRectangle width="162" height="30" as="alternateBounds" />
          </mxGeometry>
        </mxCell>
        <mxCell id="7ccc_VEoBUYiAvOMws_l-2" style="edgeStyle=orthogonalEdgeStyle;rounded=0;orthogonalLoop=1;jettySize=auto;html=1;exitX=1;exitY=0.5;exitDx=0;exitDy=0;entryX=0;entryY=0.5;entryDx=0;entryDy=0;curved=1;endArrow=ERoneToMany;endFill=0;" parent="1" source="-qaN85qFnqq6nz6RLx13-2" target="iiRLMLcNrxst5Krt7Htv-5" edge="1">
          <mxGeometry relative="1" as="geometry" />
        </mxCell>
        <mxCell id="7ccc_VEoBUYiAvOMws_l-7" style="edgeStyle=orthogonalEdgeStyle;rounded=0;orthogonalLoop=1;jettySize=auto;html=1;exitX=1;exitY=0.5;exitDx=0;exitDy=0;entryX=0;entryY=0.5;entryDx=0;entryDy=0;curved=1;endArrow=ERoneToMany;endFill=0;" parent="1" source="-qaN85qFnqq6nz6RLx13-15" target="q4Ib3q-R9kTxu34o33U6-5" edge="1">
          <mxGeometry relative="1" as="geometry" />
        </mxCell>
        <mxCell id="GYiHw_AU7eEHXGTZlOXO-1" style="edgeStyle=orthogonalEdgeStyle;rounded=0;orthogonalLoop=1;jettySize=auto;html=1;exitX=0;exitY=0.5;exitDx=0;exitDy=0;entryX=0;entryY=0.5;entryDx=0;entryDy=0;curved=1;endArrow=ERoneToMany;endFill=0;" parent="1" source="-qaN85qFnqq6nz6RLx13-15" target="-qaN85qFnqq6nz6RLx13-5" edge="1">
          <mxGeometry relative="1" as="geometry">
            <Array as="points">
              <mxPoint x="48" y="645" />
              <mxPoint x="48" y="483" />
            </Array>
          </mxGeometry>
        </mxCell>
        <mxCell id="vL2Cg9SxBII1WqpNwz9W-1" style="edgeStyle=orthogonalEdgeStyle;rounded=0;orthogonalLoop=1;jettySize=auto;html=1;exitX=0;exitY=0.5;exitDx=0;exitDy=0;entryX=0;entryY=0.5;entryDx=0;entryDy=0;curved=1;endArrow=ERoneToMany;endFill=0;" parent="1" source="q4Ib3q-R9kTxu34o33U6-2" target="iiRLMLcNrxst5Krt7Htv-8" edge="1">
          <mxGeometry relative="1" as="geometry">
            <Array as="points">
              <mxPoint x="384" y="729" />
              <mxPoint x="384" y="567" />
            </Array>
          </mxGeometry>
        </mxCell>
      </root>
    </mxGraphModel>
  </diagram>
</mxfile>
